<svg xmlns="http://www.w3.org/2000/svg" width="420" height="170" viewBox="0 0 420 170" role="img" aria-labelledby="title desc">
  <title id="title">Abhishek's live language focus</title><desc id="desc">Primary languages across public repositories. Automatically updated 2026-07-21.</desc>
  <defs><linearGradient id="bg2" x1="0" y1="0" x2="1" y2="1"><stop offset="0" stop-color="#F4F4F4"/><stop offset=".5" stop-color="#F1B8D6" stop-opacity=".58"/><stop offset="1" stop-color="#B39DE2" stop-opacity=".58"/></linearGradient><filter id="shadow2" x="-10%" y="-15%" width="120%" height="130%"><feDropShadow dx="0" dy="4" stdDeviation="6" flood-color="#4A3E57" flood-opacity=".16"/></filter></defs>
  <rect x="8" y="8" width="404" height="154" rx="20" fill="url(#bg2)" stroke="#EDB2CE" stroke-width="1.5" filter="url(#shadow2)"/>
  <circle cx="44" cy="43" r="18" fill="#B2DCE2"/><path d="m36 43 6 6 11-13" fill="none" stroke="#2D2337" stroke-width="2.5" stroke-linecap="round" stroke-linejoin="round"/>
  <text x="72" y="39" fill="#2D2337" font-family="Segoe UI,Arial,sans-serif" font-size="18" font-weight="700">Language focus</text><text x="72" y="58" fill="#746A7D" font-family="Segoe UI,Arial,sans-serif" font-size="11">Repository languages · updated 2026-07-21</text>
  <g font-family="Segoe UI,Arial,sans-serif"><text x="30" y="91" fill="#2D2337" font-size="12" font-weight="600">TypeScript</text><rect x="111" y="80" width="269" height="13" rx="6.5" fill="#FFFFFF" fill-opacity=".72"/><rect x="111" y="80" width="269" height="13" rx="6.5" fill="#B39DE2"/><text x="30" y="119" fill="#2D2337" font-size="12" font-weight="600">JavaScript</text><rect x="111" y="108" width="269" height="13" rx="6.5" fill="#FFFFFF" fill-opacity=".72"/><rect x="111" y="108" width="108" height="13" rx="6.5" fill="#B2DCE2"/><text x="30" y="147" fill="#2D2337" font-size="12" font-weight="600">Java</text><rect x="111" y="136" width="269" height="13" rx="6.5" fill="#FFFFFF" fill-opacity=".72"/><rect x="111" y="136" width="54" height="13" rx="6.5" fill="#EDB2CE"/></g>
</svg>